<?xml version="1.0" encoding="utf-8"?>
<!-- Generator: Adobe Illustrator 26.4.1, SVG Export Plug-In . SVG Version: 6.00 Build 0)  -->
<svg version="1.1" id="Capa_1" xmlns="http://www.w3.org/2000/svg" xmlns:xlink="http://www.w3.org/1999/xlink" x="0px" y="0px"
	 viewBox="0 0 2493 1011" style="enable-background:new 0 0 2493 1011;" xml:space="preserve">
<style type="text/css">
	.st0{fill-rule:evenodd;clip-rule:evenodd;fill:#FFFFFF;stroke:#141C3A;stroke-width:8;}
	.st1{fill-rule:evenodd;clip-rule:evenodd;fill:#6E07F3;stroke:#6E07F3;stroke-width:8;}
	.st2{fill:none;stroke:#141C3A;stroke-width:8;}
	.st3{fill-rule:evenodd;clip-rule:evenodd;fill:#141C3A;stroke:#141C3A;stroke-width:8;}
	.st4{fill-rule:evenodd;clip-rule:evenodd;fill:#141C3A;}
	.st5{fill-rule:evenodd;clip-rule:evenodd;fill:#FFFFFF;}
	.st6{fill-rule:evenodd;clip-rule:evenodd;fill:#2A30FF;stroke:#141C3A;stroke-width:8;}
	.st7{fill-rule:evenodd;clip-rule:evenodd;fill:#803FFF;}
	.st8{fill-rule:evenodd;clip-rule:evenodd;fill:#293347;}
	.st9{fill-rule:evenodd;clip-rule:evenodd;fill:#6E07F3;}
	.st10{fill-rule:evenodd;clip-rule:evenodd;fill:#5BE9B9;}
	.st11{opacity:0.54;fill-rule:evenodd;clip-rule:evenodd;fill:#535B6B;enable-background:new    ;}
	.st12{fill:none;stroke:#6E07F3;stroke-width:9;}
	.st13{fill-rule:evenodd;clip-rule:evenodd;fill:#FFFFFE;stroke:#5BE9B9;stroke-width:8;}
	.st14{fill:none;stroke:#141C3A;stroke-width:8;stroke-linecap:square;}
	.st15{fill-rule:evenodd;clip-rule:evenodd;fill:#FFFFFE;stroke:#141C3A;stroke-width:8;}
	.st16{fill-rule:evenodd;clip-rule:evenodd;fill:#5BE9B9;stroke:#141C3A;stroke-width:8;}
	.st17{fill-rule:evenodd;clip-rule:evenodd;fill:#FFFFFF;stroke:#141C3A;stroke-width:8.4;}
	.st18{fill-rule:evenodd;clip-rule:evenodd;fill:#6E07F3;stroke:#141C3A;stroke-width:8;}
	.st19{fill:#141C3A;}
</style>
<g id="Assets">
	<g id="Group-28">
		<path id="Case" class="st0" d="M1486,126H512c-7.7,0-14.7,3.1-19.8,8.2c-5.1,5.1-8.2,12.1-8.2,19.8v667c0,7.7,3.1,14.7,8.2,19.8
			s12.1,8.2,19.8,8.2h974c7.7,0,14.7-3.1,19.8-8.2c5.1-5.1,8.2-12.1,8.2-19.8V154c0-7.7-3.1-14.7-8.2-19.8
			C1500.7,129.1,1493.7,126,1486,126z"/>
		<path id="Case_00000150795853793232883210000006067314656198517159_" class="st1" d="M1438,188H559c-3.3,0-6.3,1.3-8.5,3.5
			s-3.5,5.2-3.5,8.5v497c0,3.3,1.3,6.3,3.5,8.5s5.2,3.5,8.5,3.5h879c3.3,0,6.3-1.3,8.5-3.5s3.5-5.2,3.5-8.5V200
			c0-3.3-1.3-6.3-3.5-8.5S1441.3,188,1438,188z"/>
		<path id="Case_00000150784620694775919300000006580712799148771004_" class="st0" d="M1073.3,849H925.7l-10,129h167.6L1073.3,849z
			"/>
		<path id="Keyboard" class="st0" d="M1144,1007H855c-0.3,0-0.5-0.1-0.7-0.3s-0.3-0.4-0.3-0.7v-13.5c0-4,1.6-7.6,4.2-10.3
			c2.6-2.6,6.3-4.2,10.3-4.2h262c4,0,7.6,1.6,10.3,4.2c2.6,2.6,4.2,6.2,4.2,10.3v13.5c0,0.3-0.1,0.5-0.3,0.7
			C1144.5,1006.9,1144.3,1007,1144,1007z"/>
		<circle id="Oval-6" class="st2" cx="999.5" cy="784.5" r="18.5"/>
		<path id="Case_00000150093097374763943490000016281279358275162047_" class="st0" d="M413,618h150c13.3,0,24,10.7,24,24v341
			c0,13.3-10.7,24-24,24H413c-13.3,0-24-10.7-24-24V642C389,628.7,399.7,618,413,618z"/>
		<path id="Case_00000010279394689750309880000009679940371242622108_" class="st3" d="M587,662H389v287.3h198V662z"/>
		<path id="Rectangle-11" class="st4" d="M445,636h87c2.2,0,4,1.8,4,4l0,0c0,2.2-1.8,4-4,4h-87c-2.2,0-4-1.8-4-4l0,0
			C441,637.8,442.8,636,445,636z"/>
		<path id="Rectangle-11_00000173847974125722669380000002610296079677457854_" class="st4" d="M488.4,966L488.4,966
			c6.3,0,11.4,5.1,11.4,11.4l0,0c0,6.3-5.1,11.4-11.4,11.4l0,0c-6.3,0-11.4-5.1-11.4-11.4l0,0C477,971.1,482.1,966,488.4,966z"/>
		<circle id="Oval-6_00000176726096746243959770000005585885010795354523_" class="st1" cx="445" cy="805" r="15"/>
		<g id="Group-73" transform="translate(480.000000, 779.000000)">
			<path id="Rectangle-11_00000052072931656195358740000001430000739423185596_" class="st5" d="M4,0h62c2.2,0,4,1.8,4,4l0,0
				c0,2.2-1.8,4-4,4H4C1.8,8,0,6.2,0,4l0,0C0,1.8,1.8,0,4,0z"/>
			<path id="Rectangle-11_00000008860509584724904020000013379066148542073788_" class="st5" d="M4,22h42c2.2,0,4,1.8,4,4l0,0
				c0,2.2-1.8,4-4,4H4c-2.2,0-4-1.8-4-4l0,0C0,23.8,1.8,22,4,22z"/>
			<path id="Rectangle-11_00000007400905037746463970000005943785741111947162_" class="st5" d="M4,44h22c2.2,0,4,1.8,4,4l0,0
				c0,2.2-1.8,4-4,4H4c-2.2,0-4-1.8-4-4l0,0C0,45.8,1.8,44,4,44z"/>
		</g>
		<circle id="Oval-7" class="st6" cx="287.5" cy="653.5" r="153.5"/>
		<path id="Case_00000142858824113573267820000007114807405858145978_" class="st0" d="M1940,468h-684c-7.7,0-14.7,3.1-19.8,8.2
			c-5.1,5.1-8.2,12.1-8.2,19.8v441c0,7.7,3.1,14.7,8.2,19.8s12.1,8.2,19.8,8.2h684c7.7,0,14.7-3.1,19.8-8.2
			c5.1-5.1,8.2-12.1,8.2-19.8V496c0-7.7-3.1-14.7-8.2-19.8C1954.7,471.1,1947.7,468,1940,468z"/>
		<path id="Keyboard_00000094578778731813672000000008198602008373559687_" class="st0" d="M2018,965h-840c-0.3,0-0.5,0.1-0.7,0.3
			s-0.3,0.4-0.3,0.7v20c0,5.8,2.4,11,6.2,14.8c3.8,3.8,9.1,6.2,14.9,6.2h800c5.8,0,11.1-2.4,14.9-6.2s6.2-9.1,6.2-14.8v-20
			c0-0.3-0.1-0.5-0.3-0.7C2018.5,965.1,2018.3,965,2018,965z"/>
		<path id="Notch" class="st0" d="M1653.3,965.4h-112c1.9,5.1,5.2,9.6,9.4,13c5.3,4.4,12.2,7,19.6,7h54c7.4,0,14.2-2.6,19.6-7
			C1648.1,975.1,1651.3,970.6,1653.3,965.4z"/>
		<path id="Screen" class="st7" d="M1265,511h665.4c4.4,0,8,3.6,8,8v395.8c0,4.4-3.6,8-8,8H1265c-4.4,0-8-3.6-8-8V519
			C1257,514.6,1260.6,511,1265,511z"/>
		<g id="Group-69" transform="translate(695.000000, 0.000000)">
			<circle id="Oval-3" class="st8" cx="112.5" cy="225" r="5"/>
			<path id="Case_00000164482658393092618840000010156674307109793943_" class="st3" d="M280.5,87h-446v435c0,5.5,2.2,10.5,5.9,14.1
				c3.6,3.6,8.6,5.9,14.2,5.9h406c5.5,0,10.5-2.2,14.1-5.9c3.6-3.6,5.9-8.6,5.9-14.1L280.5,87L280.5,87z"/>
			<path id="Case_00000046334354450630744470000009481584813972430479_" class="st0" d="M260.5,32h-406c-5.5,0-10.5,2.2-14.1,5.9
				c-3.6,3.6-5.9,8.6-5.9,14.1v27h446V52c0-5.5-2.2-10.5-5.9-14.1C271,34.2,266,32,260.5,32z"/>
			<circle id="Oval-5" class="st4" cx="-130.5" cy="56" r="9"/>
			<circle id="Oval-5_00000162337653615393841150000002015802439783480737_" class="st9" cx="-100.5" cy="56" r="9"/>
			<circle id="Oval-5_00000035531586056178219630000012383516516567964308_" class="st10" cx="-70.5" cy="56" r="9"/>
			<g id="Group-72" transform="translate(52.000000, 143.000000)">
				<path id="Rectangle-11_00000142879491587724091970000012495446927477112229_" class="st11" d="M-165.5,228h10c2.2,0,4,1.8,4,4
					l0,0c0,2.2-1.8,4-4,4h-10c-2.2,0-4-1.8-4-4l0,0C-169.5,229.8-167.7,228-165.5,228z"/>
				<path id="Rectangle-11_00000064338579040123179750000016915128050632232074_" class="st11" d="M-165.5,28h10c2.2,0,4,1.8,4,4
					l0,0c0,2.2-1.8,4-4,4h-10c-2.2,0-4-1.8-4-4l0,0C-169.5,29.8-167.7,28-165.5,28z"/>
				<path id="Rectangle-11_00000146464535977578607580000017379557256214450610_" class="st9" d="M-135.5,28h27c2.2,0,4,1.8,4,4
					s-1.8,4-4,4h-27c-2.2,0-4-1.8-4-4S-137.7,28-135.5,28z"/>
				<path id="Rectangle-11_00000124135604068883929690000016419944756201197244_" class="st10" d="M-90.5,28h27c2.2,0,4,1.8,4,4
					s-1.8,4-4,4h-27c-2.2,0-4-1.8-4-4S-92.7,28-90.5,28z"/>
				<path id="Rectangle-11_00000151516571364728575500000004984578720778877059_" class="st9" d="M-45.5,28h50c2.2,0,4,1.8,4,4
					s-1.8,4-4,4h-50c-2.2,0-4-1.8-4-4S-47.7,28-45.5,28z"/>
				<path id="Rectangle-11_00000110455768082017402670000002860673436097534619_" class="st9" d="M22.5,28h74c2.2,0,4,1.8,4,4
					s-1.8,4-4,4h-74c-2.2,0-4-1.8-4-4S20.3,28,22.5,28z"/>
				<path id="Rectangle-11_00000023257243258467753150000003965242768435637684_" class="st11" d="M-165.5,68h10c2.2,0,4,1.8,4,4
					l0,0c0,2.2-1.8,4-4,4h-10c-2.2,0-4-1.8-4-4l0,0C-169.5,69.8-167.7,68-165.5,68z"/>
				<path id="Rectangle-11_00000073703973097566444830000018377184552855062918_" class="st11" d="M-165.5,108h10c2.2,0,4,1.8,4,4
					l0,0c0,2.2-1.8,4-4,4h-10c-2.2,0-4-1.8-4-4l0,0C-169.5,109.8-167.7,108-165.5,108z"/>
				<path id="Rectangle-11_00000096041968422527464820000004864017733277615539_" class="st11" d="M-165.5,148h10c2.2,0,4,1.8,4,4
					l0,0c0,2.2-1.8,4-4,4h-10c-2.2,0-4-1.8-4-4l0,0C-169.5,149.8-167.7,148-165.5,148z"/>
				<path id="Rectangle-11_00000018929154035287483790000016253019159707724972_" class="st11" d="M-165.5,188h10c2.2,0,4,1.8,4,4
					l0,0c0,2.2-1.8,4-4,4h-10c-2.2,0-4-1.8-4-4l0,0C-169.5,189.8-167.7,188-165.5,188z"/>
				<path id="Rectangle-11_00000008839031537252196050000013438747080301621948_" class="st11" d="M-165.5,268h10c2.2,0,4,1.8,4,4
					l0,0c0,2.2-1.8,4-4,4h-10c-2.2,0-4-1.8-4-4l0,0C-169.5,269.8-167.7,268-165.5,268z"/>
				<path id="Rectangle-11_00000070821776922991921970000017470998082349008040_" class="st11" d="M-165.5,308h10c2.2,0,4,1.8,4,4
					l0,0c0,2.2-1.8,4-4,4h-10c-2.2,0-4-1.8-4-4l0,0C-169.5,309.8-167.7,308-165.5,308z"/>
				<path id="Rectangle-11_00000150795753355317827900000014874894310255515317_" class="st9" d="M-135.5,68h62c2.2,0,4,1.8,4,4l0,0
					c0,2.2-1.8,4-4,4h-62c-2.2,0-4-1.8-4-4l0,0C-139.5,69.8-137.7,68-135.5,68z"/>
				<path id="Rectangle-11_00000058557882638290379710000011438705738310563714_" class="st10" d="M-55.5,68h112c2.2,0,4,1.8,4,4
					l0,0c0,2.2-1.8,4-4,4h-112c-2.2,0-4-1.8-4-4l0,0C-59.5,69.8-57.7,68-55.5,68z"/>
				<path id="Rectangle-11_00000096056687476466620570000002789307918330417793_" class="st9" d="M74.5,68h42c2.2,0,4,1.8,4,4l0,0
					c0,2.2-1.8,4-4,4h-42c-2.2,0-4-1.8-4-4l0,0C70.5,69.8,72.3,68,74.5,68z"/>
				<path id="Rectangle-11_00000026149491242167322550000004257910570559861420_" class="st10" d="M-135.5,108h42c2.2,0,4,1.8,4,4
					l0,0c0,2.2-1.8,4-4,4h-42c-2.2,0-4-1.8-4-4l0,0C-139.5,109.8-137.7,108-135.5,108z"/>
				<path id="Rectangle-11_00000045619812790040601260000005523896307802384564_" class="st9" d="M-75.5,108h42c2.2,0,4,1.8,4,4l0,0
					c0,2.2-1.8,4-4,4h-42c-2.2,0-4-1.8-4-4l0,0C-79.5,109.8-77.7,108-75.5,108z"/>
				<path id="Rectangle-11_00000138540160647632578850000014456285750946233775_" class="st9" d="M-15.5,108h22c2.2,0,4,1.8,4,4l0,0
					c0,2.2-1.8,4-4,4h-22c-2.2,0-4-1.8-4-4l0,0C-19.5,109.8-17.7,108-15.5,108z"/>
				<path id="Rectangle-11_00000147216615033404195590000016924059223945732765_" class="st9" d="M-135.5,148h92c2.2,0,4,1.8,4,4
					l0,0c0,2.2-1.8,4-4,4h-92c-2.2,0-4-1.8-4-4l0,0C-139.5,149.8-137.7,148-135.5,148z"/>
				<path id="Rectangle-11_00000114757549533922331850000013860945798254762165_" class="st9" d="M-25.5,148h62c2.2,0,4,1.8,4,4l0,0
					c0,2.2-1.8,4-4,4h-62c-2.2,0-4-1.8-4-4l0,0C-29.5,149.8-27.7,148-25.5,148z"/>
				<path id="Rectangle-11_00000034795120746188821750000016469241778944587453_" class="st9" d="M-135.5,188h92c2.2,0,4,1.8,4,4
					l0,0c0,2.2-1.8,4-4,4h-92c-2.2,0-4-1.8-4-4l0,0C-139.5,189.8-137.7,188-135.5,188z"/>
				<path id="Rectangle-11_00000064311805156462625090000009065993147495712135_" class="st10" d="M-25.5,188h122c2.2,0,4,1.8,4,4
					l0,0c0,2.2-1.8,4-4,4h-122c-2.2,0-4-1.8-4-4l0,0C-29.5,189.8-27.7,188-25.5,188z"/>
				<path id="Rectangle-11_00000063610813321199511540000014381198778270237088_" class="st9" d="M-135.5,228h62c2.2,0,4,1.8,4,4
					l0,0c0,2.2-1.8,4-4,4h-62c-2.2,0-4-1.8-4-4l0,0C-139.5,229.8-137.7,228-135.5,228z"/>
				<path id="Rectangle-11_00000128449956844008454250000006921091580697592994_" class="st10" d="M-55.5,228h62c2.2,0,4,1.8,4,4
					l0,0c0,2.2-1.8,4-4,4h-62c-2.2,0-4-1.8-4-4l0,0C-59.5,229.8-57.7,228-55.5,228z"/>
				<path id="Rectangle-11_00000161600345701312225770000012984827455580987012_" class="st9" d="M24.5,228h32c2.2,0,4,1.8,4,4l0,0
					c0,2.2-1.8,4-4,4h-32c-2.2,0-4-1.8-4-4l0,0C20.5,229.8,22.3,228,24.5,228z"/>
				<path id="Rectangle-11_00000057145486085706014930000000471861053162818489_" class="st9" d="M-135.5,268h122c2.2,0,4,1.8,4,4
					l0,0c0,2.2-1.8,4-4,4h-122c-2.2,0-4-1.8-4-4l0,0C-139.5,269.8-137.7,268-135.5,268z"/>
				<path id="Rectangle-11_00000121254992187452171200000016139835081316547757_" class="st10" d="M-135.5,308h52c2.2,0,4,1.8,4,4
					l0,0c0,2.2-1.8,4-4,4h-52c-2.2,0-4-1.8-4-4l0,0C-139.5,309.8-137.7,308-135.5,308z"/>
			</g>
		</g>
		
			<image style="overflow:visible;enable-background:new    ;" width="180" height="180" xlink:href="4.png"  transform="matrix(2.3057 0 0 2.3057 1343 509.2941)">
		</image>
		<g id="Group-68" transform="translate(1598.000000, 319.000000)">
			<path id="Case_00000106132883069555940520000008075741040826519470_" class="st0" d="M544,46H-4v390c0,7.7,3.1,14.7,8.2,19.8
				c5.1,5.1,12.1,8.2,19.8,8.2h492c7.7,0,14.7-3.1,19.8-8.2s8.2-12.1,8.2-19.8V46z"/>
			<path id="Case_00000131340967482217128030000011070576217419140795_" class="st3" d="M516-4H24C16.3-4,9.3-0.9,4.2,4.2
				S-4,16.3-4,24v30h548V24c0-7.7-3.1-14.7-8.2-19.8C530.7-0.9,523.7-4,516-4z"/>
			<circle id="Oval-5_00000121986400596146327280000010128238234242381242_" class="st5" cx="39" cy="25" r="9"/>
			<circle id="Oval-5_00000107589485662038892440000013497334767883767729_" class="st9" cx="69" cy="25" r="9"/>
			<circle id="Oval-5_00000112624803059490462790000008467717817865958041_" class="st10" cx="99" cy="25" r="9"/>
			<g id="Group-61" transform="translate(219.000000, 139.000000)">
				<circle id="Oval-6_00000022561561028473357040000015105238212640647304_" class="st12" cx="116" cy="116" r="100"/>
				<path id="Rectangle-12" class="st13" d="M129,4h-24v24h24V4z"/>
				<path id="Rectangle-12_00000127010196407478790330000018371626422762604697_" class="st13" d="M128,204h-24v24h24V204z"/>
				<path id="Rectangle-12_00000047780432521139076930000011951807100878619529_" class="st13" d="M28,105H4v24h24V105z"/>
				<line id="Line" class="st14" x1="216" y1="26" x2="216" y2="101"/>
				<line id="Line_00000014609799405904361630000000994593003995263374_" class="st14" x1="216" y1="131" x2="216" y2="206"/>
				<circle id="Oval-5_00000088830431760797347760000002478741865633798536_" class="st4" cx="216" cy="23" r="12"/>
				<circle id="Oval-5_00000000938809567384532020000016761295969266038446_" class="st4" cx="216" cy="213" r="12"/>
				<path id="Rectangle-12_00000089543479685766715950000018024896147463864202_" class="st13" d="M227,105h-24v24h24V105z"/>
			</g>
			<g id="Group-60" transform="translate(90.000000, 130.000000)">
				<path id="Rectangle-15" class="st4" d="M12,0h46c6.6,0,12,5.4,12,12v46c0,6.6-5.4,12-12,12H12C5.4,70,0,64.6,0,58V12
					C0,5.4,5.4,0,12,0z"/>
				<path id="Rectangle-15_00000115513757585303662980000002494108536724388504_" class="st10" d="M12,90h46c6.6,0,12,5.4,12,12v46
					c0,6.6-5.4,12-12,12H12c-6.6,0-12-5.4-12-12v-46C0,95.4,5.4,90,12,90z"/>
				<path id="Rectangle-15_00000039108761584405405630000003465385393916824230_" class="st9" d="M12,180h46c6.6,0,12,5.4,12,12v46
					c0,6.6-5.4,12-12,12H12c-6.6,0-12-5.4-12-12v-46C0,185.4,5.4,180,12,180z"/>
			</g>
		</g>
		<g id="Group-65" transform="translate(2253.000000, 800.000000)">
			<g id="Group-64" transform="translate(116.000000, 51.000000)">
				<circle id="Oval-8" class="st0" cx="60" cy="60" r="60"/>
				<circle id="Oval-8_00000099650034457926457810000008766810741269793186_" class="st0" cx="60" cy="60" r="35"/>
			</g>
			<circle id="Oval-8_00000113339520654904729400000005701432272535951548_" class="st15" cx="96" cy="20" r="20"/>
			<path id="Rectangle-16" class="st0" d="M177.9,15H8c-1.1,0-2.1,0.4-2.8,1.2C4.4,16.9,4,17.9,4,19v168c0,5.5,2.2,10.5,5.9,14.1
				S18.5,207,24,207h137.9c5.5,0,10.5-2.2,14.1-5.9c3.6-3.6,5.9-8.6,5.9-14.1V19c0-1.1-0.4-2.1-1.2-2.8C180,15.4,179,15,177.9,15z"
				/>
			<path id="Rectangle-16_00000077294573177945037010000003273640817593634707_" class="st16" d="M133,69H97c-2.2,0-4.2,0.9-5.7,2.3
				C89.9,72.8,89,74.8,89,77v48c0,2.2,0.9,4.2,2.3,5.7c1.4,1.4,3.4,2.3,5.7,2.3h36c2.2,0,4.2-0.9,5.7-2.3c1.4-1.4,2.3-3.4,2.3-5.7
				V77c0-2.2-0.9-4.2-2.3-5.7C137.2,69.9,135.2,69,133,69z"/>
			<line id="Line-2" class="st14" x1="114.5" y1="16.5" x2="114.5" y2="62"/>
		</g>
		<g id="Group-78" transform="translate(2080.000000, 948.000000)">
			<path id="Oval-8_00000003823602440956417390000016605404578023697056_" class="st17" d="M63,4.2c-16.2,0-30.9,6.6-41.6,17.2
				c-9.7,9.7-16,22.8-17.1,37.4h117.3c-1-14.6-7.4-27.7-17.1-37.4C93.9,10.8,79.2,4.2,63,4.2z"/>
			<path id="Rectangle-11_00000096767505857606019210000013812295903785548469_" class="st4" d="M63,5L63,5c2.2,0,4,1.8,4,4v5
				c0,2.2-1.8,4-4,4l0,0c-2.2,0-4-1.8-4-4V9C59,6.8,60.8,5,63,5z"/>
		</g>
		<g id="Group-27" transform="translate(0.000000, 885.000000)">
			<path id="Rectangle-17" class="st18" d="M305,4H63c-16.3,0-31,6.6-41.7,17.3S4,46.7,4,63s6.6,31,17.3,41.7S46.7,122,63,122h242
				c1.7,0,3.2-0.7,4.2-1.8s1.8-2.6,1.8-4.2v-9.3c0-2.1-0.8-4-2.1-5.5c-1.3-1.4-3.2-2.4-5.3-2.5c-13.8-1-24.1-4.5-31-10.2
				c-7.3-6-11-14.5-11-25.5c0-11.1,3.8-19.6,11.1-25.8c6.9-5.8,17.3-9.5,31.3-10.8c2-0.2,3.8-1.2,5-2.6c1.3-1.4,2-3.3,2-5.3V10
				c0-1.7-0.7-3.2-1.8-4.2S306.7,4,305,4z"/>
			<path id="Rectangle-19" class="st0" d="M292.8,27H62c-9.9,0-18.9,4-25.5,10.5S26,53.1,26,63s4,18.9,10.5,25.5S52.1,99,62,99
				c108.9,0,186.3,0.2,232.3,0.6l0,0c-8-2.2-17.3-5.3-23.8-12c-5.3-5.4-9-13.1-9-24.6c0-11.6,3.8-19.4,9.1-24.8
				C276.7,32.1,285.2,29,292.8,27z"/>
			<path id="Rectangle-18" class="st4" d="M57.9,72H260c2.2,0,3.9,1.8,3.9,4s-1.8,4-3.9,4H57.9c-2.2,0-3.9-1.8-3.9-4
				S55.8,72,57.9,72z"/>
			<path id="Rectangle-18_00000173848180750769741600000014016503256234565555_" class="st4" d="M57.9,46H260c2.2,0,3.9,1.8,3.9,4
				s-1.8,4-3.9,4H57.9c-2.2,0-3.9-1.8-3.9-4S55.8,46,57.9,46z"/>
		</g>
		<g id="Group-94" transform="translate(199.000000, 589.000000)">
			<path id="Shape" class="st19" d="M51.2,100.4c-4.9-4.4-9.8-8.7-14.7-13.1c-7.9-7-15.7-13.9-23.5-20.9c-1.8-1.6-3.6-3.2-5.4-4.8
				c0,2.1,0,4.2,0,6.3c4.9-4.4,9.8-8.7,14.7-13.1C30.2,47.9,38,40.9,45.8,34c1.8-1.6,3.6-3.2,5.4-4.8c1.7-1.6,1.7-4.7,0-6.3
				c-1.9-1.7-4.5-1.7-6.3,0c-5,4.4-9.9,8.8-14.8,13.1c-7.8,7-15.6,13.9-23.5,20.9c-1.8,1.6-3.6,3.2-5.4,4.8c-1.7,1.5-1.7,4.8,0,6.3
				c5,4.3,9.9,8.7,14.8,13c7.8,6.9,15.6,13.9,23.4,20.9c1.8,1.6,3.6,3.2,5.4,4.8c1.7,1.6,4.6,1.8,6.3,0C52.7,105,53,102,51.2,100.4
				L51.2,100.4z"/>
			<path id="Shape_00000101077964832502308630000016830748665491711886_" class="st19" d="M125.9,29.2c4.9,4.4,9.8,8.7,14.7,13.1
				c7.8,6.9,15.6,13.9,23.4,20.9c1.8,1.6,3.6,3.2,5.4,4.8c0-2.1,0-4.2,0-6.3c-4.9,4.4-9.8,8.7-14.7,13.1
				c-7.8,6.9-15.6,13.9-23.4,20.9c-1.8,1.6-3.6,3.2-5.4,4.8c-1.7,1.6-1.7,4.7,0,6.3c1.9,1.7,4.5,1.7,6.3,0
				c4.9-4.4,9.8-8.7,14.7-13.1c7.8-6.9,15.6-13.9,23.4-20.9c1.8-1.6,3.6-3.2,5.4-4.8c1.7-1.5,1.7-4.8,0-6.3
				c-4.9-4.4-9.8-8.7-14.7-13.1c-7.8-6.9-15.6-13.9-23.4-20.9c-1.8-1.6-3.6-3.2-5.4-4.8c-1.7-1.6-4.6-1.8-6.3,0
				C124.3,24.6,124,27.6,125.9,29.2L125.9,29.2z"/>
			<path id="Shape_00000161602873247916621450000013837265589120921516_" class="st19" d="M72.5,126.6c1.3-4,2.7-8,4-12
				c3.2-9.6,6.4-19.3,9.6-28.9C90,74,93.9,62.4,97.7,50.8c3.3-10,6.7-20.1,10-30.1c1.6-4.9,3.4-9.7,4.9-14.7c0-0.1,0-0.1,0.1-0.2
				c0.7-2.2-0.9-5-3.1-5.5c-2.5-0.6-4.7,0.7-5.5,3.1c-1.3,4-2.7,8-4,12c-3.2,9.6-6.4,19.3-9.6,28.9C86.6,56,82.7,67.6,78.8,79.2
				c-3.3,10-6.7,20.1-10,30.1c-1.6,4.9-3.4,9.7-4.9,14.6c0,0.1,0,0.1-0.1,0.2c-0.7,2.2,0.9,5,3.1,5.5
				C69.5,130.2,71.8,128.9,72.5,126.6L72.5,126.6z"/>
		</g>
	</g>
</g>
</svg>
